<svg
xmlns="http://www.w3.org/2000/svg"
xmlns:sodipodi="http://sodipodi.sourceforge.net/DTD/sodipodi-0.dtd"
xmlns:inkscape="http://www.inkscape.org/namespaces/inkscape"
width="15" height="15" viewBox="0 0 15 15">
<sodipodi:namedview
showgrid="true">
<inkscape:grid
type="xygrid"
id="pixels" />
</sodipodi:namedview>
<rect id="fill" fill="#006bce" width="15" height="15" rx="2"/>
<path
    d="M 11.4362 3.83698 C 11.3178 3.24808 10.9414 3.01283 10.3753 2.77757 C 9.8092 2.5408 8.48418 2.26002 7.4961 2.26002 C 6.50654 2.26002 5.18156 2.5408 4.61542 2.77757 C 4.04929 3.01283 3.6729 3.24808 3.55451 3.83698 L 3.12954 7.10321 L 3.12954 11.6034 L 3.86262 11.6034 L 3.86262 12.3091 C 3.86262 13.1682 5.12237 13.1682 5.12237 12.3091 L 5.12237 11.6034 L 9.87141 11.6034 L 9.87141 12.3091 C 9.87141 13.1682 11.1281 13.1682 11.1281 12.3091 L 11.1281 11.6034 L 11.8597 11.6034 L 11.8597 7.10321 Z M 5.52001 2.98247 L 9.4692 2.98247 C 9.85777 2.98247 9.85777 3.71707 9.4692 3.71707 L 5.52001 3.71707 C 5.13299 3.71707 5.13299 2.98247 5.52001 2.98247 M 4.49096 10.2525 C 4.12669 10.2525 3.8277 9.95657 3.8277 9.5878 C 3.8277 9.22202 4.12669 8.92449 4.49096 8.92449 C 4.8583 8.92449 5.15574 9.22202 5.15574 9.5878 C 5.15574 9.95657 4.8583 10.2525 4.49096 10.2525 M 10.4998 10.2525 C 10.1325 10.2525 9.83347 9.95657 9.83347 9.5878 C 9.83347 9.22202 10.1325 8.92449 10.4998 8.92449 C 10.864 8.92449 11.1615 9.22202 11.1615 9.5878 C 11.1615 9.95657 10.864 10.2525 10.4998 10.2525 M 10.7608 7.44772 L 4.23902 7.44772 C 4.04929 7.44772 3.89146 7.28988 3.89146 7.10015 C 3.89146 7.06825 3.89754 7.03794 3.90359 7.0091 L 4.25115 4.43343 C 4.27999 4.27257 4.42267 4.14811 4.59116 4.14811 L 10.4072 4.14811 C 10.5772 4.14811 10.7183 4.27257 10.7487 4.43343 L 11.0947 7.0091 C 11.1008 7.03794 11.1069 7.06825 11.1069 7.10015 C 11.1069 7.28988 10.9506 7.44772 10.7608 7.44772"
    fill="white"
    id="bus" />
</svg>
