<svg
xmlns="http://www.w3.org/2000/svg"
xmlns:sodipodi="http://sodipodi.sourceforge.net/DTD/sodipodi-0.dtd"
xmlns:inkscape="http://www.inkscape.org/namespaces/inkscape"
width="15" height="15" viewBox="0 0 15 15">
<sodipodi:namedview
showgrid="true">
<inkscape:grid
type="xygrid"
id="pixels" />
</sodipodi:namedview>
<rect x="2.25" y="0" width="4.5" height="7.5" rx="0.75" fill="#f1e0d1"/>
<rect x="3" y="0" width="3" height="15" rx="0.75" fill="#f1e0d1"/>
<rect x="8.5" y="0" width="3" height="15" rx="0.75" fill="#f1e0d1"/>
<path
    d="M 3,1 a 0.5,0.5 0 0,1 1,0 l 0,4.5 1,0 0,-4.5 a 0.5,0.5 0 0,1 1,0 l 0,4.75 a 0.75,0.75 0 0,1 -0.75,0.75 l0,7 a 0.75,0.75 0 0,1 -1.5,0 l 0,-7 a 0.75,0.75 0 0,1 -0.75,-0.75 z"
    fill="#ce7e03"
    id="fork"
/>
<path
    d="M 9,1.5 a 1,1 0 0,1 2,0 l 0,12.25 a 0.75,0.75 0 0,1 -1.5,0 l 0,-5.25 -0.5,0 z"
    fill="#ce7e03"
    id="knife"
/>
</svg>
