<svg
xmlns="http://www.w3.org/2000/svg"
xmlns:sodipodi="http://sodipodi.sourceforge.net/DTD/sodipodi-0.dtd"
xmlns:inkscape="http://www.inkscape.org/namespaces/inkscape"
width="15" height="15" viewBox="0 0 15 15">
<sodipodi:namedview
showgrid="true">
<inkscape:grid
type="xygrid"
id="pixels" />
</sodipodi:namedview>
<path
    d="M 6.84751 5.27768 C 6.84751 5.67382 6.4878 6.09575 6.02033 6.09575 L 6.02033 12.7769 C 6.02033 13.724 4.72568 13.724 4.72568 12.7769 L 4.72568 6.09575 C 4.27187 6.09575 3.87574 5.74515 3.87574 5.21849 L 3.87574 1.54247 C 3.87574 1.22223 4.33865 1.20857 4.33865 1.55461 L 4.33865 4.27292 L 4.72568 4.27292 L 5.1719 4.27292 L 5.13699 4.27292 L 5.13699 1.53337 C 5.13699 1.22678 5.56956 1.21464 5.56956 1.54551 L 5.56956 4.27292 L 6.39674 4.27292 L 6.39674 1.53337 C 6.39674 1.23133 6.84751 1.21919 6.84751 1.54551 Z"
    fill="#ce7e03"
    id="fork"/>
<path
    d="M 11 2.39765 L 11 12.7731 C 11 13.7004 9.69519 13.6883 9.69519 12.7731 L 9.69519 8.65841 L 9.00001 8.65841 L 9.00001 2.39765 C 9.00001 0.942118 11 0.942118 11 2.39765"
    fill="#ce7e03"
    id="knife"/>
</svg>
