<svg
xmlns="http://www.w3.org/2000/svg"
xmlns:sodipodi="http://sodipodi.sourceforge.net/DTD/sodipodi-0.dtd"
xmlns:inkscape="http://www.inkscape.org/namespaces/inkscape"
width="15" height="15" viewBox="0 0 15 15">
<sodipodi:namedview
showgrid="true">
<inkscape:grid
type="xygrid"
id="pixels" />
</sodipodi:namedview>
<rect id="fill" fill="#006bce" width="15" height="15" rx="2"/>
<path
    id="subway"
    d="M 5.4833515,2 H 4.3929864 C 3.0613361,2 2,3.154043 2,4.563605 V 9.782709 C 2,10.91033 2.6841127,11.85754 3.6403436,12.19315 V 13 H 4.4894785 V 12.3565 H 10.423687 V 13 h 0.849091 V 12.22373 C 12.271689,11.91199 13,10.94443 13,9.782709 V 4.563605 C 13,3.154043 11.938719,2 10.607058,2 H 9.3622964 Z M 8.3973864,2 H 6.4578975 Z M 3.8526329,3.246047 h 7.1113751 c 0.50655,0 0.945671,0.42394 0.945671,0.960069 v 3.554309 c 0,0.53614 -0.439121,0.96008 -0.945671,0.96008 H 3.8526329 c -0.5065176,0 -0.935958,-0.42394 -0.935958,-0.96008 V 4.206116 c 0,-0.536129 0.4294404,-0.960069 0.935958,-0.960069 z M 4.1131681,9.44568 c 0.4178683,0 0.7526317,0.364551 0.7526317,0.80685 0,0.44231 -0.3347634,0.79662 -0.7526317,0.79662 -0.4178574,0 -0.7526317,-0.35431 -0.7526317,-0.79662 0,-0.442299 0.3347743,-0.80685 0.7526317,-0.80685 z m 6.5903599,0 c 0.41789,0 0.7623,0.364551 0.7623,0.80685 0,0.44231 -0.34441,0.79662 -0.7623,0.79662 -0.417891,0 -0.7526426,-0.35431 -0.7526426,-0.79662 0,-0.442299 0.3347516,-0.80685 0.7526426,-0.80685 z"
    fill="#ffffff" />
</svg>
