<svg
xmlns="http://www.w3.org/2000/svg"
xmlns:sodipodi="http://sodipodi.sourceforge.net/DTD/sodipodi-0.dtd"
xmlns:inkscape="http://www.inkscape.org/namespaces/inkscape"
width="15" height="15" viewBox="0 0 15 15">
<sodipodi:namedview
showgrid="true">
<inkscape:grid
type="xygrid"
id="pixels" />
</sodipodi:namedview>
<rect id="fill" fill="#006bce" width="15" height="15" rx="2"/>
    <path
       d="M 4.7848 11.6708 L 5.16393 10.9125 L 9.83484 10.9125 L 10.214 11.6708 Z M 5.41416 6.93164 L 6.55156 6.93164 L 6.55156 8.06904 L 5.41416 8.06904 Z M 5.43236 3.32989 C 5.43236 3.12212 5.60373 2.95075 5.81149 2.95075 L 7.24158 2.95075 L 7.24158 4.84642 L 5.81149 4.84642 C 5.60373 4.84642 5.43236 4.67656 5.43236 4.46728 Z M 7.75872 2.95075 L 9.1888 2.95075 C 9.39505 2.95075 9.56794 3.12212 9.56794 3.32989 L 9.56794 4.46728 C 9.56794 4.67656 9.39505 4.84642 9.1888 4.84642 L 7.75872 4.84642 Z M 9.45571 10.1543 L 5.54306 10.1543 L 5.9222 9.396 L 9.07658 9.396 Z M 8.44722 6.93164 L 9.58462 6.93164 L 9.58462 8.06904 L 8.44722 8.06904 Z M 9.87882 9.24284 C 10.2049 8.92891 10.5324 8.55888 10.5324 8.09179 L 10.5324 2.84763 C 10.5324 2.57162 10.0851 1.81335 9.71504 1.81335 L 8.25765 1.81335 L 8.25765 2.33049 L 6.74112 2.33049 L 6.74112 1.81335 L 5.28374 1.81335 C 4.91522 1.81335 4.46633 2.57162 4.46633 2.84763 L 4.46633 8.09179 C 4.46633 8.55888 4.79542 8.92891 5.12147 9.24284 L 3.14846 13.1873 L 4.02653 13.1873 L 4.40567 12.4291 L 10.5931 12.4291 L 10.9722 13.1873 L 11.8503 13.1873 Z"
       fill="white"
       id="train" />
</svg>
